<svg xmlns="http://www.w3.org/2000/svg" version="1.1" width="100%" height="100%" viewBox="110 160 260 260">
  <rect width="260" height="260" x="110" y="170" fill="#287382"/>
  <g>
    <rect width="333.3333333333333" height="333.3333333333333" rx="13.333333333333334" ry="13.333333333333334"
          y="206.35253059992692" fill="#f4a896"
          transform="matrix(0.6788671228099795,0,0,0.6788671228099794,0,46.7695356988383)" x="184.1302947998047"/>
    <path d="M352.2489383755495 313.13353696885713L352.2489383755495 371.09847734153215Q360.20625563381026 369.47500169401343 364.45930451322545 365.4734772106927Q368.7352192468311 361.4490868731815 370.72454856139626 355.84695259653245Q372.73674373015183 350.2676841740738 373.35412179329273 343.47652547952373Q373.9486340022433 336.6853667849736 374.6346096279554 329.32256173566344Q375.32058525366756 321.9826225405436 376.9211950469958 314.52835407447185Q378.52180484032414 307.09695146259037 382.54619517783533 300.1914634970883L382.54619517783533 300.1914634970883Q382.7977195739297 299.6198171423282 383.66662203316514 298.81951224566404Q384.5583903465909 298.0192073489999 385.99893916058636 298.0192073489999L385.99893916058636 298.0192073489999Q387.5309513913434 298.0192073489999 389.2687563098142 298.4307927244272Q390.9836953740945 298.81951224566404 392.44711004228037 299.50548787137615Q393.88765885627583 300.1914634970883 394.80229302389205 301.08323181051406Q395.7397930456986 301.9521342697494 395.7397930456986 302.91250014574644L395.7397930456986 302.91250014574644Q395.7397930456986 304.12439041783784 394.45930521103594 304.76463433516915L394.45930521103594 304.76463433516915Q391.87546368752027 308.6289636933475 390.389183165144 313.3393296565708Q388.9029026427677 318.0268297656037 388.0111343293419 323.1487811042542Q387.14223187010657 328.24786658871443 386.50198795277527 333.62134232345943Q385.83887818125356 339.0176839123949 384.99284157620855 344.27683037618783Q384.169670825354 349.5588426941713 382.7977195739297 354.56646476186984Q381.42576832250546 359.5969526837588 379.09345119508424 363.98719668831643Q376.76113406766297 368.3545748386836 373.10259739719834 371.8987822381963Q369.4440607267336 375.442989637709 363.979121575227 377.8439043277014L363.979121575227 377.8439043277014Q369.7641826853993 380.97652635178684 373.5827803351968 385.38963621053483Q377.4013779849943 389.8256119234733 380.05381707108126 395.0161608246951Q382.7062561571681 400.1838438717265 384.6041220549717 405.85457571094673Q386.50198795277527 411.525307550167 388.46845141315004 417.08171011843524Q390.4349148735248 422.6152468325131 392.8358295635172 427.8057957337349Q395.2596101077001 432.9963446349567 399.03247604911684 437.1807959518007L399.03247604911684 437.1807959518007Q399.3525980077825 437.56951547303754 399.8785126541618 437.7753081607512Q400.4044273005411 437.98110084846485 400.9303419469204 438.16402768198805Q401.43339073910926 438.3698203697017 401.79924440615576 438.66707647417695Q402.1650980732022 438.94146672446186 402.1650980732022 439.4216496624603L402.1650980732022 439.4216496624603Q402.1650980732022 440.6335399345518 400.79314682177795 442.119820456928Q399.4440614245441 443.6061009793043 397.5461955267406 444.93232052234777Q395.648329628937 446.25854006539123 393.79619543951424 447.1274425246266Q391.9669271042819 448.01921083805235 390.9836953740945 448.01921083805235L390.9836953740945 448.01921083805235Q389.7946709561935 448.01921083805235 388.8114392260061 446.96738154529373L388.8114392260061 446.96738154529373Q385.35869524325506 442.6457351033073 383.0263781158338 438.00396670265525Q380.69406098841256 433.3850641561936 378.97912192413224 428.65183233877985Q377.2413170056615 423.89573466717576 375.96082917099886 419.20823455814286Q374.6803413363362 414.49786859491957 373.35412179329273 410.1304904445524Q372.0279022502493 405.74024643999473 370.3815607485402 401.8073195192452Q368.7352192468311 397.8515267443052 366.3114387026482 394.6045754492678Q363.91052401265574 391.3576241542304 360.4806458840951 388.8881119016667Q357.0736336097249 386.44146550329344 352.2489383755495 385.0695142518692L352.2489383755495 385.0695142518692L352.2489383755495 422.29512487384744Q352.2489383755495 424.39878345936467 350.8769871241253 425.2219542102192Q349.505035872701 426.0679908152642 347.6529016832783 426.0679908152642L347.6529016832783 426.0679908152642Q346.2123528692828 426.0679908152642 344.77180405528736 425.67927129402733Q343.33125524129184 425.2676859186 342.16509667758123 424.6274420012687Q340.9989381138706 423.9871980839374 340.22149907139686 423.1411614788924Q339.4669258831135 422.29512487384744 339.4669258831135 421.3347589978505L339.4669258831135 421.3347589978505L339.4669258831135 319.0786590583623Q333.91052331484525 319.8103663924552 328.97149880971796 322.21128108244767Q324.0324743045906 324.63506162663055 320.3739376341259 328.79664708928414Q316.7154009636612 332.9810984061281 314.5888765239536 338.92622049563323Q312.46235208424605 344.8942084393288 312.46235208424605 352.69146471825667L312.46235208424605 352.69146471825667Q312.46235208424605 357.6762209317648 313.4913155228142 361.65487956089515Q314.5431448155728 365.63353819002555 315.9836936295683 368.4003065470644Q317.44710829775414 371.16707490410334 318.8876571117496 372.6990871348604Q320.3282059257451 374.2310993656175 321.1285108224092 374.2310993656175L321.1285108224092 374.2310993656175Q321.8602181565022 374.2310993656175 322.50046207383355 373.9109774069519Q323.14070599116485 373.5908554482862 323.78094990849615 373.5908554482862L323.78094990849615 373.5908554482862Q325.08430359734916 373.5908554482862 325.08430359734916 375.6030506170418L325.08430359734916 375.6030506170418Q325.08430359734916 378.16402628636706 323.91814503363855 380.54207512216914Q322.75198646992794 382.8972581037808 320.9684498430764 384.4064044803475Q319.2077790704153 385.89268500272374 317.1269863390885 386.28140452396065Q315.02332775357127 386.6929898993879 313.26265698091015 385.38963621053483L313.26265698091015 385.38963621053483Q311.09040083282173 383.94908739653937 308.6437544344485 380.97652635178684Q306.17424218188484 378.00396530703426 304.1391811589388 373.7737822818094Q302.08125428180244 369.5664651107751 300.755034738759 364.2615869386012Q299.4288151957155 358.9567087664274 299.4288151957155 352.69146471825667L299.4288151957155 352.69146471825667Q299.4288151957155 344.00244012590304 301.50960792704234 337.1198180145913Q303.61326651255956 330.26006175747 307.1117422036914 325.11524456462905Q310.6102178948233 319.97042737178805 315.2748521496658 316.35762240970416Q319.9394864045082 312.7219515934299 325.08430359734916 310.48109788277026Q330.22912079019017 308.21737831792024 335.53399896236397 307.2341465877328Q340.8388771345378 306.22804900335507 345.6635723687131 306.22804900335507L345.6635723687131 306.22804900335507Q346.9440602033758 306.22804900335507 348.1559504754672 306.731097795544Q349.3449748933682 307.2570124419232 350.23674320679396 308.19451246372984Q351.1285115202197 309.109146631346 351.6772920207894 310.3896344660086Q352.2489383755495 311.69298815486167 352.2489383755495 313.13353696885713L352.2489383755495 313.13353696885713Z "
          fill="#287382" transform="matrix(0.6788671228099795,0,0,0.6788671228099794,0,46.7695356988383)"/>
  </g>
</svg>
